<?xml version="1.0" encoding="UTF-8"?>
<!DOCTYPE svg PUBLIC "-//W3C//DTD SVG 1.1//EN" "http://www.w3.org/Graphics/SVG/1.1/DTD/svg11.dtd">
<svg xmlns="http://www.w3.org/2000/svg" width="51.350000" height="42.850000" viewBox="0 0 51.350000 42.850000" style="background-color: white">
<rect x="0" y="0" width="51.350000" height="42.850000" style="fill: white"/>
<text x="10.000000" y="24.850000" font-size="1.500000" fill="#000000">0</text>
<line x1="13.660000" y1="0.000000" x2="13.660000" y2="25.950000" style="stroke-width:0.330000; stroke:#000000" />
<line x1="14.320000" y1="0.000000" x2="14.320000" y2="25.950000" style="stroke-width:0.330000; stroke:#000000" />
<text x="15.320000" y="24.850000" font-size="1.500000" fill="#000000">8</text>
<line x1="14.650000" y1="0.000000" x2="14.650000" y2="22.850000" style="stroke-width:0.330000; stroke:#000000" />
<line x1="14.980000" y1="0.000000" x2="14.980000" y2="22.850000" style="stroke-width:0.330000; stroke:#000000" />
<line x1="15.640000" y1="0.000000" x2="15.640000" y2="22.850000" style="stroke-width:0.330000; stroke:#000000" />
<line x1="15.970000" y1="0.000000" x2="15.970000" y2="22.850000" style="stroke-width:0.330000; stroke:#000000" />
<line x1="16.300000" y1="0.000000" x2="16.300000" y2="22.850000" style="stroke-width:0.330000; stroke:#000000" />
<text x="17.630000" y="24.850000" font-size="1.500000" fill="#000000">1</text>
<line x1="17.290000" y1="0.000000" x2="17.290000" y2="22.850000" style="stroke-width:0.330000; stroke:#000000" />
<line x1="17.620000" y1="0.000000" x2="17.620000" y2="22.850000" style="stroke-width:0.330000; stroke:#000000" />
<line x1="18.610000" y1="0.000000" x2="18.610000" y2="22.850000" style="stroke-width:0.330000; stroke:#000000" />
<text x="19.940000" y="24.850000" font-size="1.500000" fill="#000000">1</text>
<line x1="19.600000" y1="0.000000" x2="19.600000" y2="22.850000" style="stroke-width:0.330000; stroke:#000000" />
<line x1="19.930000" y1="0.000000" x2="19.930000" y2="22.850000" style="stroke-width:0.330000; stroke:#000000" />
<line x1="20.920000" y1="0.000000" x2="20.920000" y2="22.850000" style="stroke-width:0.330000; stroke:#000000" />
<text x="22.250000" y="24.850000" font-size="1.500000" fill="#000000">5</text>
<line x1="21.580000" y1="0.000000" x2="21.580000" y2="22.850000" style="stroke-width:0.330000; stroke:#000000" />
<line x1="21.910000" y1="0.000000" x2="21.910000" y2="22.850000" style="stroke-width:0.330000; stroke:#000000" />
<line x1="23.230000" y1="0.000000" x2="23.230000" y2="22.850000" style="stroke-width:0.330000; stroke:#000000" />
<text x="24.560000" y="24.850000" font-size="1.500000" fill="#000000">3</text>
<line x1="23.890000" y1="0.000000" x2="23.890000" y2="22.850000" style="stroke-width:0.330000; stroke:#000000" />
<line x1="24.220000" y1="0.000000" x2="24.220000" y2="22.850000" style="stroke-width:0.330000; stroke:#000000" />
<line x1="24.550000" y1="0.000000" x2="24.550000" y2="22.850000" style="stroke-width:0.330000; stroke:#000000" />
<line x1="24.880000" y1="0.000000" x2="24.880000" y2="22.850000" style="stroke-width:0.330000; stroke:#000000" />
<line x1="25.540000" y1="0.000000" x2="25.540000" y2="22.850000" style="stroke-width:0.330000; stroke:#000000" />
<text x="26.870000" y="24.850000" font-size="1.500000" fill="#000000">8</text>
<line x1="26.200000" y1="0.000000" x2="26.200000" y2="22.850000" style="stroke-width:0.330000; stroke:#000000" />
<line x1="26.530000" y1="0.000000" x2="26.530000" y2="22.850000" style="stroke-width:0.330000; stroke:#000000" />
<line x1="27.190000" y1="0.000000" x2="27.190000" y2="22.850000" style="stroke-width:0.330000; stroke:#000000" />
<line x1="27.520000" y1="0.000000" x2="27.520000" y2="22.850000" style="stroke-width:0.330000; stroke:#000000" />
<line x1="27.850000" y1="0.000000" x2="27.850000" y2="22.850000" style="stroke-width:0.330000; stroke:#000000" />
<line x1="28.510000" y1="0.000000" x2="28.510000" y2="25.950000" style="stroke-width:0.330000; stroke:#000000" />
<line x1="29.170000" y1="0.000000" x2="29.170000" y2="25.950000" style="stroke-width:0.330000; stroke:#000000" />
<text x="30.170000" y="24.850000" font-size="1.500000" fill="#000000">0</text>
<line x1="29.170000" y1="0.000000" x2="29.170000" y2="22.850000" style="stroke-width:0.330000; stroke:#000000" />
<line x1="29.500000" y1="0.000000" x2="29.500000" y2="22.850000" style="stroke-width:0.330000; stroke:#000000" />
<line x1="29.830000" y1="0.000000" x2="29.830000" y2="22.850000" style="stroke-width:0.330000; stroke:#000000" />
<line x1="30.820000" y1="0.000000" x2="30.820000" y2="22.850000" style="stroke-width:0.330000; stroke:#000000" />
<text x="32.480000" y="24.850000" font-size="1.500000" fill="#000000">1</text>
<line x1="31.480000" y1="0.000000" x2="31.480000" y2="22.850000" style="stroke-width:0.330000; stroke:#000000" />
<line x1="31.810000" y1="0.000000" x2="31.810000" y2="22.850000" style="stroke-width:0.330000; stroke:#000000" />
<line x1="32.800000" y1="0.000000" x2="32.800000" y2="22.850000" style="stroke-width:0.330000; stroke:#000000" />
<line x1="33.130000" y1="0.000000" x2="33.130000" y2="22.850000" style="stroke-width:0.330000; stroke:#000000" />
<text x="34.790000" y="24.850000" font-size="1.500000" fill="#000000">3</text>
<line x1="33.790000" y1="0.000000" x2="33.790000" y2="22.850000" style="stroke-width:0.330000; stroke:#000000" />
<line x1="35.440000" y1="0.000000" x2="35.440000" y2="22.850000" style="stroke-width:0.330000; stroke:#000000" />
<text x="37.100000" y="24.850000" font-size="1.500000" fill="#000000">0</text>
<line x1="36.100000" y1="0.000000" x2="36.100000" y2="22.850000" style="stroke-width:0.330000; stroke:#000000" />
<line x1="36.430000" y1="0.000000" x2="36.430000" y2="22.850000" style="stroke-width:0.330000; stroke:#000000" />
<line x1="36.760000" y1="0.000000" x2="36.760000" y2="22.850000" style="stroke-width:0.330000; stroke:#000000" />
<line x1="37.750000" y1="0.000000" x2="37.750000" y2="22.850000" style="stroke-width:0.330000; stroke:#000000" />
<text x="39.410000" y="24.850000" font-size="1.500000" fill="#000000">2</text>
<line x1="38.410000" y1="0.000000" x2="38.410000" y2="22.850000" style="stroke-width:0.330000; stroke:#000000" />
<line x1="38.740000" y1="0.000000" x2="38.740000" y2="22.850000" style="stroke-width:0.330000; stroke:#000000" />
<line x1="39.400000" y1="0.000000" x2="39.400000" y2="22.850000" style="stroke-width:0.330000; stroke:#000000" />
<line x1="39.730000" y1="0.000000" x2="39.730000" y2="22.850000" style="stroke-width:0.330000; stroke:#000000" />
<text x="41.720000" y="24.850000" font-size="1.500000" fill="#000000">4</text>
<line x1="40.720000" y1="0.000000" x2="40.720000" y2="22.850000" style="stroke-width:0.330000; stroke:#000000" />
<line x1="41.380000" y1="0.000000" x2="41.380000" y2="22.850000" style="stroke-width:0.330000; stroke:#000000" />
<line x1="41.710000" y1="0.000000" x2="41.710000" y2="22.850000" style="stroke-width:0.330000; stroke:#000000" />
<line x1="42.040000" y1="0.000000" x2="42.040000" y2="22.850000" style="stroke-width:0.330000; stroke:#000000" />
<line x1="43.030000" y1="0.000000" x2="43.030000" y2="25.950000" style="stroke-width:0.330000; stroke:#000000" />
<line x1="43.690000" y1="0.000000" x2="43.690000" y2="25.950000" style="stroke-width:0.330000; stroke:#000000" />
</svg>