<?xml version="1.0" encoding="UTF-8"?>
<!DOCTYPE svg PUBLIC "-//W3C//DTD SVG 1.1//EN" "http://www.w3.org/Graphics/SVG/1.1/DTD/svg11.dtd">
<svg xmlns="http://www.w3.org/2000/svg" width="395" height="369" viewBox="0 0 395 369" style="background-color: white">
<rect x="0" y="0" width="395" height="369" style="fill: white"/>
<line x1="150" y1="150" x2="150" y2="219" style="stroke-width:1; stroke:#000000" />
<line x1="152" y1="150" x2="152" y2="219" style="stroke-width:1; stroke:#000000" />
<line x1="154" y1="150" x2="154" y2="219" style="stroke-width:1; stroke:#000000" />
<line x1="155" y1="150" x2="155" y2="219" style="stroke-width:1; stroke:#000000" />
<line x1="157" y1="150" x2="157" y2="219" style="stroke-width:1; stroke:#000000" />
<line x1="158" y1="150" x2="158" y2="219" style="stroke-width:1; stroke:#000000" />
<line x1="159" y1="150" x2="159" y2="219" style="stroke-width:1; stroke:#000000" />
<line x1="162" y1="150" x2="162" y2="219" style="stroke-width:1; stroke:#000000" />
<line x1="163" y1="150" x2="163" y2="219" style="stroke-width:1; stroke:#000000" />
<line x1="166" y1="150" x2="166" y2="219" style="stroke-width:1; stroke:#000000" />
<line x1="169" y1="150" x2="169" y2="219" style="stroke-width:1; stroke:#000000" />
<line x1="170" y1="150" x2="170" y2="219" style="stroke-width:1; stroke:#000000" />
<line x1="173" y1="150" x2="173" y2="219" style="stroke-width:1; stroke:#000000" />
<line x1="175" y1="150" x2="175" y2="219" style="stroke-width:1; stroke:#000000" />
<line x1="176" y1="150" x2="176" y2="219" style="stroke-width:1; stroke:#000000" />
<line x1="180" y1="150" x2="180" y2="219" style="stroke-width:1; stroke:#000000" />
<line x1="182" y1="150" x2="182" y2="219" style="stroke-width:1; stroke:#000000" />
<line x1="183" y1="150" x2="183" y2="219" style="stroke-width:1; stroke:#000000" />
<line x1="184" y1="150" x2="184" y2="219" style="stroke-width:1; stroke:#000000" />
<line x1="185" y1="150" x2="185" y2="219" style="stroke-width:1; stroke:#000000" />
<line x1="187" y1="150" x2="187" y2="219" style="stroke-width:1; stroke:#000000" />
<line x1="189" y1="150" x2="189" y2="219" style="stroke-width:1; stroke:#000000" />
<line x1="190" y1="150" x2="190" y2="219" style="stroke-width:1; stroke:#000000" />
<line x1="192" y1="150" x2="192" y2="219" style="stroke-width:1; stroke:#000000" />
<line x1="193" y1="150" x2="193" y2="219" style="stroke-width:1; stroke:#000000" />
<line x1="194" y1="150" x2="194" y2="219" style="stroke-width:1; stroke:#000000" />
<line x1="196" y1="150" x2="196" y2="219" style="stroke-width:1; stroke:#000000" />
<line x1="198" y1="150" x2="198" y2="219" style="stroke-width:1; stroke:#000000" />
<line x1="200" y1="150" x2="200" y2="219" style="stroke-width:1; stroke:#000000" />
<line x1="201" y1="150" x2="201" y2="219" style="stroke-width:1; stroke:#000000" />
<line x1="202" y1="150" x2="202" y2="219" style="stroke-width:1; stroke:#000000" />
<line x1="205" y1="150" x2="205" y2="219" style="stroke-width:1; stroke:#000000" />
<line x1="207" y1="150" x2="207" y2="219" style="stroke-width:1; stroke:#000000" />
<line x1="208" y1="150" x2="208" y2="219" style="stroke-width:1; stroke:#000000" />
<line x1="211" y1="150" x2="211" y2="219" style="stroke-width:1; stroke:#000000" />
<line x1="212" y1="150" x2="212" y2="219" style="stroke-width:1; stroke:#000000" />
<line x1="214" y1="150" x2="214" y2="219" style="stroke-width:1; stroke:#000000" />
<line x1="219" y1="150" x2="219" y2="219" style="stroke-width:1; stroke:#000000" />
<line x1="221" y1="150" x2="221" y2="219" style="stroke-width:1; stroke:#000000" />
<line x1="222" y1="150" x2="222" y2="219" style="stroke-width:1; stroke:#000000" />
<line x1="223" y1="150" x2="223" y2="219" style="stroke-width:1; stroke:#000000" />
<line x1="226" y1="150" x2="226" y2="219" style="stroke-width:1; stroke:#000000" />
<line x1="228" y1="150" x2="228" y2="219" style="stroke-width:1; stroke:#000000" />
<line x1="229" y1="150" x2="229" y2="219" style="stroke-width:1; stroke:#000000" />
<line x1="231" y1="150" x2="231" y2="219" style="stroke-width:1; stroke:#000000" />
<line x1="232" y1="150" x2="232" y2="219" style="stroke-width:1; stroke:#000000" />
<line x1="235" y1="150" x2="235" y2="219" style="stroke-width:1; stroke:#000000" />
<line x1="237" y1="150" x2="237" y2="219" style="stroke-width:1; stroke:#000000" />
<line x1="238" y1="150" x2="238" y2="219" style="stroke-width:1; stroke:#000000" />
<line x1="239" y1="150" x2="239" y2="219" style="stroke-width:1; stroke:#000000" />
<line x1="242" y1="150" x2="242" y2="219" style="stroke-width:1; stroke:#000000" />
<line x1="244" y1="150" x2="244" y2="219" style="stroke-width:1; stroke:#000000" />
</svg>